
<svg xmlns="http://www.w3.org/2000/svg" version="1.1" xmlns:xlink="http://www.w3.org/1999/xlink" preserveAspectRatio="none" x="0px" y="0px" width="512px" height="512px" viewBox="0 0 512 512">
<defs>
<g id="Layer1_0_FILL">
<path fill="#000000" stroke="none" d="
M 512 256
Q 512 149.95 437 74.95 362.05 0 256 0 149.95 0 74.95 74.95 0 149.95 0 256 0 362.1 74.95 437 149.95 512 256 512 362.05 512 437 437 512 362.1 512 256 Z"/>
</g>

<g id="Symbol_1_0_Layer0_0_FILL">
<path fill="#FFFFFF" stroke="none" d="
M 103.15 29
L 86.15 44.8
Q 82.25 48.45 76.9 48.45 71.6 48.45 67.65 44.8
L 50.75 29 40.05 29 62.35 49.95
Q 68.6 55.6 76.95 55.6 85.35 55.6 91.55 49.95
L 113.85 29 103.15 29 Z"/>
</g>

<g id="Symbol_1_0_Layer0_1_FILL">
<path fill="#FFFFFF" stroke="none" d="
M 86.3 71
L 103.3 87 114 87 91.6 66
Q 85.4 60.35 77 60.35 68.6 60.35 62.4 66
L 40 87 50.7 87 67.8 71
Q 71.7 67.4 77.05 67.4 82.35 67.4 86.3 71 Z"/>
</g>
</defs>

<g transform="matrix( 1, 0, 0, 1, 0,0) ">
<use xlink:href="#Layer1_0_FILL"/>
</g>

<g transform="matrix( 4.63104248046875, 0, 0, 4.6946563720703125, 256.2,256) ">
<g transform="matrix( 1, 0, 0, 1, -77,-58) ">
<use xlink:href="#Symbol_1_0_Layer0_0_FILL"/>
</g>

<g transform="matrix( 1, 0, 0, 1, -77,-58) ">
<use xlink:href="#Symbol_1_0_Layer0_1_FILL"/>
</g>
</g>
</svg>
